<svg width="14" height="15" viewBox="0 0 14 15" fill="none" xmlns="http://www.w3.org/2000/svg">
  <path d="M7.0041 1.41363C8.87551 1.41363 9.09713 1.42184 9.83311 1.45467C10.5171 1.48476 10.8865 1.59968 11.1327 1.69544C11.4583 1.82129 11.6936 1.97451 11.9371 2.21801C12.1833 2.46425 12.3338 2.6968 12.4596 3.02238C12.5554 3.26862 12.6703 3.64072 12.7004 4.32197C12.7332 5.06069 12.7414 5.2823 12.7414 7.15098C12.7414 9.02238 12.7332 9.244 12.7004 9.97998C12.6703 10.664 12.5554 11.0333 12.4596 11.2796C12.3338 11.6051 12.1806 11.8404 11.9371 12.0839C11.6908 12.3302 11.4583 12.4807 11.1327 12.6065C10.8865 12.7023 10.5144 12.8172 9.83311 12.8473C9.09439 12.8801 8.87278 12.8883 7.0041 12.8883C5.13269 12.8883 4.91108 12.8801 4.1751 12.8473C3.49111 12.8172 3.12175 12.7023 2.87551 12.6065C2.54993 12.4807 2.31464 12.3274 2.07114 12.0839C1.8249 11.8377 1.67442 11.6051 1.54856 11.2796C1.4528 11.0333 1.33789 10.6612 1.3078 9.97998C1.27497 9.24126 1.26676 9.01965 1.26676 7.15098C1.26676 5.27957 1.27497 5.05795 1.3078 4.32197C1.33789 3.63798 1.4528 3.26862 1.54856 3.02238C1.67442 2.6968 1.82763 2.46151 2.07114 2.21801C2.31737 1.97177 2.54993 1.82129 2.87551 1.69544C3.12175 1.59968 3.49384 1.48476 4.1751 1.45467C4.91108 1.42184 5.13269 1.41363 7.0041 1.41363ZM7.0041 0.152344C5.1026 0.152344 4.86457 0.160552 4.11765 0.193383C3.37346 0.226215 2.86183 0.346598 2.4186 0.518965C1.95622 0.699539 1.56498 0.937569 1.17647 1.32881C0.785226 1.71732 0.547196 2.10857 0.366621 2.56821C0.194254 3.01418 0.0738714 3.52307 0.0410397 4.26725C0.00820793 5.01691 0 5.25494 0 7.15645C0 9.05795 0.00820793 9.29598 0.0410397 10.0429C0.0738714 10.7871 0.194254 11.2987 0.366621 11.7419C0.547196 12.2043 0.785226 12.5956 1.17647 12.9841C1.56498 13.3726 1.95622 13.6134 2.41587 13.7912C2.86183 13.9636 3.37072 14.0839 4.11491 14.1168C4.86183 14.1496 5.09986 14.1578 7.00137 14.1578C8.90287 14.1578 9.1409 14.1496 9.88782 14.1168C10.632 14.0839 11.1436 13.9636 11.5869 13.7912C12.0465 13.6134 12.4378 13.3726 12.8263 12.9841C13.2148 12.5956 13.4555 12.2043 13.6334 11.7447C13.8057 11.2987 13.9261 10.7898 13.959 10.0456C13.9918 9.29872 14 9.06069 14 7.15918C14 5.25768 13.9918 5.01965 13.959 4.27273C13.9261 3.52854 13.8057 3.01691 13.6334 2.57368C13.461 2.10857 13.223 1.71732 12.8317 1.32881C12.4432 0.940305 12.052 0.699539 11.5923 0.521701C11.1464 0.349334 10.6375 0.228951 9.8933 0.196119C9.14364 0.160552 8.90561 0.152344 7.0041 0.152344Z" fill="#2A2745"/>
  <path d="M7.00406 3.55823C5.01774 3.55823 3.40625 5.16972 3.40625 7.15604C3.40625 9.14236 5.01774 10.7538 7.00406 10.7538C8.99038 10.7538 10.6019 9.14236 10.6019 7.15604C10.6019 5.16972 8.99038 3.55823 7.00406 3.55823ZM7.00406 9.48983C5.71542 9.48983 4.67027 8.44468 4.67027 7.15604C4.67027 5.86739 5.71542 4.82225 7.00406 4.82225C8.29271 4.82225 9.33785 5.86739 9.33785 7.15604C9.33785 8.44468 8.29271 9.48983 7.00406 9.48983Z" fill="#2A2745"/>
  <path d="M11.5842 3.41636C11.5842 3.88148 11.2066 4.25631 10.7442 4.25631C10.2791 4.25631 9.9043 3.87874 9.9043 3.41636C9.9043 2.95125 10.2819 2.57642 10.7442 2.57642C11.2066 2.57642 11.5842 2.95398 11.5842 3.41636Z" fill="#2A2745"/>
</svg>