<svg width="12" height="13" viewBox="0 0 12 13" fill="none" xmlns="http://www.w3.org/2000/svg">
  <path fill-rule="evenodd" clip-rule="evenodd" d="M1.48396e-07 1.15489C1.48396e-07 0.888999 0.105625 0.633998 0.293639 0.445984C0.481653 0.25797 0.736654 0.152345 1.00255 0.152345H10.9964C11.1281 0.15213 11.2586 0.177907 11.3804 0.2282C11.5022 0.278493 11.6129 0.352314 11.7061 0.445438C11.7994 0.538561 11.8733 0.649158 11.9237 0.770896C11.9742 0.892634 12.0001 1.02312 12 1.15489V11.1487C12.0001 11.2805 11.9743 11.411 11.9239 11.5328C11.8736 11.6546 11.7997 11.7653 11.7066 11.8585C11.6134 11.9517 11.5028 12.0257 11.381 12.0761C11.2592 12.1265 11.1287 12.1524 10.9969 12.1523H1.00255C0.870843 12.1523 0.740432 12.1264 0.618762 12.076C0.497092 12.0256 0.386548 11.9517 0.293446 11.8585C0.200344 11.7654 0.126508 11.6548 0.0761578 11.5331C0.0258072 11.4114 -7.15067e-05 11.281 1.48396e-07 11.1493V1.15489ZM4.74982 4.72762H6.37473V5.54362C6.60927 5.07453 7.20927 4.65235 8.11091 4.65235C9.83945 4.65235 10.2491 5.58671 10.2491 7.30107V10.4767H8.49982V7.69162C8.49982 6.71525 8.26527 6.16434 7.66964 6.16434C6.84327 6.16434 6.49964 6.75834 6.49964 7.69162V10.4767H4.74982V4.72762ZM1.74982 10.402H3.49964V4.65235H1.74982V10.4014V10.402ZM3.75 2.77707C3.7533 2.92689 3.72664 3.07587 3.67159 3.21524C3.61653 3.35462 3.53419 3.4816 3.4294 3.58873C3.32461 3.69585 3.19947 3.78097 3.06134 3.83908C2.92321 3.89718 2.77486 3.92712 2.625 3.92712C2.47514 3.92712 2.32679 3.89718 2.18866 3.83908C2.05053 3.78097 1.92539 3.69585 1.8206 3.58873C1.71581 3.4816 1.63347 3.35462 1.57841 3.21524C1.52336 3.07587 1.4967 2.92689 1.5 2.77707C1.50648 2.48299 1.62785 2.20314 1.83812 1.99745C2.04839 1.79175 2.33085 1.67657 2.625 1.67657C2.91915 1.67657 3.20161 1.79175 3.41188 1.99745C3.62215 2.20314 3.74352 2.48299 3.75 2.77707Z" fill="#2A2745"/>
</svg>