<svg width="165" height="36" viewBox="0 0 165 36" fill="none" xmlns="http://www.w3.org/2000/svg"><g clip-path="url(#a)" fill="#E6AA03"><path d="M.627.308h9.065V2.67h-6.49v4.07h6.016v2.28H3.203v5.666H.627V.308ZM35.69 2.362c-2.287 0-3.685 1.952-3.685 5.138s1.38 5.134 3.685 5.134 3.67-1.952 3.67-5.134c0-3.182-1.381-5.138-3.669-5.138Zm0-2.362c3.77 0 6.24 3 6.24 7.5S39.46 15 35.69 15s-6.261-3-6.261-7.5S31.919 0 35.69 0Zm25.493.308h2.576v9.49c0 1.89.928 2.836 2.8 2.836 1.873 0 2.843-.925 2.843-2.793V.308h2.575v9.655c0 3.186-1.978 5.033-5.418 5.033-3.44 0-5.376-1.85-5.376-5.033V.308Zm36.843 6.677c1.711 0 2.596-.761 2.596-2.177 0-1.415-.864-2.138-2.596-2.138h-2.78v4.315h2.78Zm2.058 2.138 3.029 5.569h-2.821L97.428 9.35h-2.181v5.34H92.67V.309h5.643c3.029 0 4.88 1.703 4.88 4.5 0 2.155-1.131 3.719-3.11 4.293v.022Zm27.011-6.453h-4.283V.308h11.141V2.67h-4.283v12.022h-2.575V2.67ZM154.062.308h2.571v5.836h5.296V.308h2.575v14.38h-2.575V8.484h-5.296v6.202h-2.571V.308ZM5.727 28.479c1.547 0 2.432-.824 2.432-2.24 0-1.5-.805-2.26-2.432-2.26H2.576v4.5h3.151ZM0 21.617h5.787c3.05 0 4.943 1.766 4.943 4.622 0 2.857-1.855 4.602-4.965 4.602H2.571v5.155H0V21.613v.004Zm36.97 0h-2.576v14.379h2.575v-14.38Zm25.688 0h2.575v12.021h6.24V36h-8.815V21.617Zm30.898 0h2.576v12.021h6.24V36h-8.816V21.617Zm36.966 9.659-2.123-6.101h-.042l-2.122 6.101h4.287Zm.783 2.26h-5.85l-.843 2.468h-2.597l5.19-14.379h2.368l5.168 14.38h-2.597l-.843-2.468h.004Zm28.523-5.239c1.711 0 2.597-.76 2.597-2.176 0-1.415-.865-2.138-2.597-2.138h-2.779v4.314h2.779Zm2.058 2.138 3.029 5.57h-2.821l-2.864-5.342h-2.181v5.341h-2.576V21.625h5.643c3.029 0 4.88 1.703 4.88 4.5 0 2.155-1.131 3.719-3.11 4.293v.021-.004Z"/></g><defs><clipPath id="a"><path fill="#fff" d="M0 0h165v36H0z"/></clipPath></defs></svg>