<svg width="22" height="16" viewBox="0 0 22 16" fill="none" xmlns="http://www.w3.org/2000/svg">
  <path fill-rule="evenodd" clip-rule="evenodd" d="M19.3924 0.666626C20.0083 0.666626 20.5553 0.946224 20.8994 1.37869L10.9042 9.31676L0.997951 1.52284C1.32917 1.00936 1.92656 0.666626 2.60849 0.666626H19.3924ZM0.722656 13.8809V2.93142L7.83062 8.52377L0.737309 14.1046C0.72764 14.0313 0.722656 13.9567 0.722656 13.8809ZM1.37272 15.2298C1.70369 15.5019 2.13577 15.6666 2.60849 15.6666H19.3924C19.7987 15.6666 20.175 15.545 20.4828 15.338L12.9298 9.33949L11.5715 10.4182C11.1874 10.7233 10.6278 10.7245 10.2422 10.4211L8.86343 9.33636L1.37272 15.2298ZM13.9569 8.52377L21.2267 14.2973C21.2604 14.1637 21.2782 14.0243 21.2782 13.8809V2.70931L13.9569 8.52377Z" fill="#2A2745"/>
</svg>